####
#
# OBJ File Generated by Meshlab
#
####
# Object aorta_cut_lowres.obj
#
# Vertices: 62
# Faces: 107
#
####
mtllib ./aorta_cut_lowres.obj.mtl

vn 0.848795 0.527437 -0.036834
v 11.474106 15.606179 -644.472473
vn 0.061610 -0.991271 -0.116559
v 6.562011 4.465877 -642.108948
vn -0.445587 -0.890667 -0.090356
v -2.805561 5.965216 -646.725098
vn 0.922640 -0.370358 -0.107565
v 12.389741 8.354311 -624.164429
vn -0.911133 0.325192 0.253152
v -8.699101 17.476149 -646.494446
vn -0.008934 -0.999769 0.019530
v 3.656983 2.953882 -628.746643
vn -0.890922 -0.454127 0.005137
v -6.769601 10.117098 -641.808594
vn 0.452709 0.891565 0.012889
v 6.791791 20.987379 -639.418701
vn -0.584526 -0.810595 0.035570
v -2.792828 4.878597 -632.550903
vn -0.491643 0.854995 0.165138
v -0.854315 20.076864 -637.154297
vn 0.338600 -0.934041 0.113657
v 11.991908 5.413067 -605.087646
vn -0.988113 -0.037940 0.148976
v -6.643464 11.089101 -630.891296
vn 0.860850 0.449288 -0.238909
v 12.789082 15.408352 -617.002930
vn 0.392735 0.917761 -0.058946
v 8.468071 19.691206 -619.587769
vn -0.710906 -0.640788 0.289834
v 0.494756 7.121684 -606.321655
vn -0.841717 0.510258 0.176491
v -2.373787 17.550587 -617.415955
vn -0.602406 0.798092 0.012519
v 3.686607 20.078770 -604.286011
vn 0.077000 0.880273 -0.468178
v 10.937790 22.733269 -602.992981
vn -0.351771 -0.826765 0.438996
v 8.551160 10.804088 -588.801575
vn 0.826873 0.326037 -0.458237
v 20.090281 19.825747 -600.634705
vn 0.054949 0.894189 -0.444304
v 15.578320 30.229090 -593.022461
vn 0.900548 -0.393608 -0.184625
v 18.539055 12.830962 -602.732544
vn -0.950251 -0.095698 0.296422
v 3.347885 15.606525 -593.661926
vn -0.043104 0.939574 -0.339621
v 15.212110 32.978043 -583.349548
vn 0.568436 -0.800600 0.189527
v 20.875221 15.547952 -582.533752
vn -0.991658 0.128730 -0.006488
v 6.135478 24.508818 -581.986389
vn 0.970578 -0.160957 -0.179083
v 23.814987 21.102760 -587.092712
vn 0.720486 0.568465 -0.397175
v 23.215288 29.571136 -582.847961
vn -0.484091 -0.827012 0.285844
v 10.664323 17.202232 -576.419556
vn 0.572871 -0.817784 0.055217
v 23.156950 19.283588 -572.100098
vn -0.758120 0.594624 -0.267724
v 7.734344 30.700863 -579.620544
vn 0.634390 0.710370 -0.304835
v 25.416059 38.645237 -566.397644
vn -0.961821 0.249483 -0.112512
v 6.433262 32.531769 -555.834351
vn -0.071064 0.916630 -0.393369
v 17.619137 38.391407 -571.837585
vn -0.940034 -0.338978 0.037805
v 6.232492 28.457464 -552.574585
vn 0.985541 -0.054866 -0.160307
v 29.093479 28.474012 -568.839783
vn -0.200818 -0.950025 0.239010
v 15.450094 18.719896 -546.644104
vn -0.616249 0.756943 -0.217430
v 11.021688 38.900051 -559.997314
vn 0.754269 0.646940 -0.112019
v 25.915354 43.319275 -545.930481
vn -0.483659 0.837390 -0.254660
v 11.818079 41.103195 -553.112915
vn 0.969844 0.232666 0.072592
v 28.370380 38.700993 -542.167542
vn 0.241623 0.933434 -0.265177
v 20.451288 47.452774 -543.716125
vn 0.953698 -0.197663 0.226694
v 29.269136 30.313047 -543.861816
vn 0.684874 -0.657120 0.314867
v 26.619596 23.228926 -544.554504
vn -0.771687 -0.610923 0.176839
v 6.587497 29.830189 -533.479309
vn -0.955790 0.256298 -0.144139
v 4.948101 39.471050 -539.170837
vn 0.879759 -0.425481 0.212108
v 24.494539 34.256489 -528.810425
vn 0.230873 -0.852820 0.468396
v 18.889414 25.224409 -535.304260
vn 0.950626 0.309999 -0.014513
v 25.965693 43.712372 -531.712463
vn -0.401635 0.864654 -0.301765
v 11.948549 50.037594 -535.125732
vn 0.264906 -0.941499 0.208339
v 17.757011 31.083624 -517.416565
vn -0.985381 -0.006984 0.170219
v 2.975797 48.381313 -493.798096
vn -0.818439 -0.563100 0.114349
v 5.734274 35.781929 -511.266144
vn 0.732428 -0.662691 0.156173
v 25.757097 40.309036 -501.751465
vn 0.985283 0.154182 -0.073790
v 26.677553 46.999504 -515.395691
vn 0.188683 -0.950266 0.247778
v 14.710038 34.088676 -501.493103
vn -0.839242 0.525342 -0.140320
v 4.227383 53.104721 -501.922485
vn 0.394490 0.879294 -0.266869
v 21.001408 54.599026 -515.704529
vn -0.881804 0.460618 0.101253
v 6.317874 56.915154 -489.427338
vn -0.373911 0.860680 -0.345573
v 16.100157 61.145935 -498.491638
vn -0.567299 0.763508 -0.308588
v 10.922132 61.337589 -493.860168
vn -0.942286 -0.150370 0.299142
v 6.072625 43.748615 -486.371918
# 62 vertices, 0 vertices normals


usemtl material_0
f 9//9 7//7 3//3
f 9//9 3//3 6//6
f 2//2 6//6 3//3
f 7//7 12//12 5//5
f 12//12 10//10 5//5
f 10//10 12//12 16//16
f 10//10 14//14 8//8
f 12//12 7//7 9//9
f 1//1 8//8 13//13
f 13//13 8//8 14//14
f 11//11 6//6 2//2
f 11//11 2//2 4//4
f 10//10 16//16 17//17
f 12//12 9//9 15//15
f 10//10 17//17 14//14
f 4//4 1//1 13//13
f 9//9 6//6 15//15
f 22//22 11//11 4//4
f 4//4 13//13 22//22
f 15//15 6//6 11//11
f 14//14 17//17 18//18
f 12//12 15//15 16//16
f 18//18 13//13 14//14
f 18//18 20//20 13//13
f 23//23 16//16 15//15
f 22//22 13//13 20//20
f 11//11 19//19 15//15
f 19//19 23//23 15//15
f 16//16 23//23 17//17
f 18//18 17//17 21//21
f 20//20 18//18 21//21
f 20//20 27//27 22//22
f 17//17 23//23 26//26
f 27//27 20//20 28//28
f 22//22 25//25 11//11
f 25//25 22//22 27//27
f 17//17 26//26 21//21
f 20//20 21//21 28//28
f 28//28 21//21 24//24
f 11//11 25//25 19//19
f 29//29 23//23 19//19
f 29//29 19//19 25//25
f 26//26 23//23 29//29
f 26//26 31//31 21//21
f 21//21 31//31 24//24
f 30//30 25//25 27//27
f 36//36 30//30 27//27
f 27//27 28//28 36//36
f 24//24 31//31 38//38
f 30//30 29//29 25//25
f 29//29 35//35 26//26
f 28//28 24//24 34//34
f 34//34 24//24 38//38
f 32//32 36//36 28//28
f 26//26 33//33 31//31
f 28//28 34//34 32//32
f 35//35 33//33 26//26
f 29//29 37//37 35//35
f 30//30 36//36 44//44
f 32//32 41//41 36//36
f 38//38 40//40 34//34
f 34//34 42//42 32//32
f 32//32 42//42 39//39
f 37//37 29//29 30//30
f 43//43 36//36 41//41
f 31//31 33//33 38//38
f 43//43 44//44 36//36
f 41//41 32//32 39//39
f 42//42 34//34 40//40
f 30//30 44//44 37//37
f 37//37 45//45 35//35
f 46//46 38//38 33//33
f 46//46 33//33 35//35
f 42//42 40//40 50//50
f 38//38 46//46 40//40
f 46//46 50//50 40//40
f 39//39 49//49 41//41
f 37//37 44//44 48//48
f 44//44 43//43 48//48
f 45//45 46//46 35//35
f 43//43 47//47 48//48
f 47//47 43//43 41//41
f 39//39 42//42 49//49
f 42//42 50//50 58//58
f 45//45 37//37 48//48
f 45//45 48//48 51//51
f 47//47 41//41 49//49
f 49//49 42//42 58//58
f 51//51 48//48 47//47
f 45//45 53//53 46//46
f 46//46 57//57 50//50
f 45//45 56//56 53//53
f 47//47 49//49 55//55
f 46//46 52//52 57//57
f 45//45 51//51 56//56
f 52//52 46//46 53//53
f 51//51 47//47 54//54
f 54//54 47//47 55//55
f 49//49 58//58 55//55
f 50//50 57//57 60//60
f 50//50 60//60 58//58
f 51//51 54//54 56//56
f 53//53 62//62 52//52
f 57//57 61//61 60//60
f 59//59 61//61 57//57
f 57//57 52//52 59//59
f 59//59 52//52 62//62
# 107 faces, 0 coords texture

# End of File
